<?xml version="1.0" encoding="UTF-8"?>
<svg id="Layer_1" xmlns="http://www.w3.org/2000/svg" version="1.1" xmlns:xlink="http://www.w3.org/1999/xlink" viewBox="0 0 160 160">
  <!-- Generator: Adobe Illustrator 29.6.1, SVG Export Plug-In . SVG Version: 2.1.1 Build 9)  -->
  <defs>
    <linearGradient id="linear-gradient" x1="21.09" y1="80" x2="137.11" y2="80" gradientUnits="userSpaceOnUse">
      <stop offset="0" stop-color="#196cff"/>
      <stop offset="1" stop-color="#009bff"/>
    </linearGradient>
    <linearGradient id="linear-gradient1" x1="20.59" y1="80" x2="137.61" y2="80" gradientUnits="userSpaceOnUse">
      <stop offset="0" stop-color="#196cff"/>
      <stop offset="1" stop-color="#009bff"/>
    </linearGradient>
  </defs>
  <path d="M79.1,44.56c19.07,0,34.59,15.9,34.59,35.44s-15.52,35.44-34.59,35.44-34.59-15.9-34.59-35.44,15.52-35.44,34.59-35.44M79.1,22.56c-32.04,0-58.01,25.72-58.01,57.44s25.97,57.44,58.01,57.44,58.01-25.72,58.01-57.44-25.97-57.44-58.01-57.44h0Z" display="none" fill="url(#linear-gradient)" stroke="url(#linear-gradient1)" stroke-miterlimit="10"/>
  <path d="M138.39,46.38c1.69,2.76,3.02,5.61,4.24,8.64,3.24,8.17,4.91,16.65,4.69,25.46-.4,19.5-7.79,36.06-22.28,49.45-3.25,3.01-6.85,5.6-10.67,7.79-15.24,8.86-31.5,11.59-48.7,8.03-14.88-3.14-27.14-10.59-37.02-21.99-2.76-3.17-5.2-6.53-7.11-10.19l17.46-10.04c.17.11.33.22.58.29,2.69,1.25,5.46,2.46,8.25,3.53,6.38,2.44,12.86,4.51,19.72,5.44,9.13,1.27,17.95.54,26.4-3.69,4.03-2,7.59-4.67,10.53-8.02,7.37-8.28,11.4-23.11,4.02-36.47-.44-.78-.39-1.03.47-1.52,4.02-2.21,11.97-6.78,11.97-6.78l.71-.4c5.57-3.11,11.11-6.3,16.72-9.52h.02Z" fill="#6835ff" fill-rule="evenodd" isolation="isolate" opacity=".9"/>
  <path d="M39.16,103.65l-17.46,10.04c-1.91-3.15-3.39-6.44-4.71-9.82-2.42-6.37-3.93-12.96-4.24-19.83-.62-14.25,2.52-27.54,10.23-39.74,4.47-7.02,10-13.09,16.6-18.04,7.76-5.8,16.46-9.78,25.93-11.91,10.78-2.37,21.58-2.15,32.25.71,12.93,3.54,23.86,10.3,32.81,20.27,3.02,3.45,5.76,7.14,7.97,11.16-5.61,3.22-11.15,6.41-16.76,9.64l-.62.35s-.28-.14-.4-.17c-7.78-3.61-15.77-6.68-24.24-8.42-5.54-1.16-11.04-1.72-16.69-1.06-7.96.95-15.13,3.63-21.26,9.01-11.19,9.75-14.14,26.46-6.98,39.63.48.86-.26,1.18-.26,1.18l-12.16,6.99v.02Z" fill="#4a63ff" fill-rule="evenodd" isolation="isolate" opacity=".7"/>
  <circle cx="84.21" cy="64.02" r="8.51" fill="#7164f5"/>
  <path d="M83.91,72.82c-4.74-.49-8.18-4.73-7.69-9.47.49-4.74,4.73-8.18,9.47-7.69s8.18,4.73,7.69,9.47c-.49,4.74-4.73,8.18-9.47,7.69" fill="#7164f5" fill-rule="evenodd"/>
  <circle cx="89.91" cy="70.63" r="2.56" fill="#fff"/>
  <circle cx="89.91" cy="70.63" r="1.9" fill="#7164f5"/>
  <circle cx="84.8" cy="64.24" r="5.11" fill="#fff"/>
  <circle cx="87.19" cy="56.24" r="2.56" fill="#fff"/>
  <circle cx="87.19" cy="56.24" r="1.9" fill="#7164f5"/>
  <circle cx="75.7" cy="64.24" r="2.56" fill="#fff"/>
  <circle cx="75.7" cy="64.24" r="1.9" fill="#7164f5"/>
</svg>